<?xml version="1.0" encoding="UTF-8"?>
<svg xmlns="http://www.w3.org/2000/svg" xmlns:xlink="http://www.w3.org/1999/xlink" width="12pt" height="12pt" viewBox="0 0 12 12" version="1.1">
<g id="surface21283275">
<path style=" stroke:none;fill-rule:nonzero;fill:rgb(40%,40%,40%);fill-opacity:1;" d="M 6.632812 7.433594 L 7.871094 8.675781 C 7.679688 9.035156 7.664062 9.394531 7.859375 9.59375 L 10.125 11.859375 C 10.410156 12.144531 11.03125 11.988281 11.507812 11.507812 C 11.984375 11.03125 12.144531 10.410156 11.855469 10.125 L 9.59375 7.863281 C 9.394531 7.664062 9.035156 7.683594 8.675781 7.871094 L 7.433594 6.632812 Z M 4.25 0 C 1.902344 0 0 1.902344 0 4.25 C 0 6.597656 1.902344 8.5 4.25 8.5 C 6.597656 8.5 8.5 6.597656 8.5 4.25 C 8.5 1.902344 6.597656 0 4.25 0 Z M 4.25 7.5 C 2.453125 7.5 1 6.042969 1 4.25 C 1 2.453125 2.457031 1 4.25 1 C 6.046875 1 7.5 2.457031 7.5 4.25 C 7.5 6.046875 6.042969 7.5 4.25 7.5 Z M 4.25 7.5 "/>
</g>
</svg>
